<?xml version="1.0" encoding="UTF-8"?>
<svg xmlns="http://www.w3.org/2000/svg" viewBox="0 0 200 80">
  <path d="M30 25 C30 25, 60 25, 80 25 C100 25, 100 40, 80 40 C60 40, 30 40, 30 40 L30 25 Z" fill="#B71C1C" />
  <path d="M30 45 L30 65 M40 45 L40 65 M50 45 L65 45 C75 45, 75 65, 65 65 L50 65 M50 55 L60 55 M80 45 L95 45 C105 45, 105 65, 95 65 L80 65 M110 45 L110 65 M115 45 L125 65 M125 45 L115 65 M135 45 L150 45 C160 45, 160 55, 150 55 L140 55 M140 55 L160 65 M170 40 L170 65" stroke="#B71C1C" stroke-width="4" stroke-linecap="round" fill="none" />
  <line x1="30" y1="75" x2="170" y2="75" stroke="#B71C1C" stroke-width="2" />
  <text x="85" y="85" font-family="Arial" font-size="10" fill="#B71C1C">GROUP</text>
</svg>
